<?xml version="1.0" encoding="utf-8"?>
<!-- Generator: Adobe Illustrator 23.0.2, SVG Export Plug-In . SVG Version: 6.00 Build 0)  -->
<svg version="1.1" id="图层_1" xmlns="http://www.w3.org/2000/svg" xmlns:xlink="http://www.w3.org/1999/xlink" x="0px" y="0px"
	 viewBox="0 0 357 445.15" style="enable-background:new 0 0 357 445.15;" xml:space="preserve">
<style type="text/css">
	.st0{fill:#FDD23E;}
	.st1{fill:#C9CACA;}
	.st2{fill:#EA9500;}
</style>
<g>
	<circle class="st2" cx="178.58" cy="6.06" r="6.06"/>
	<path class="st2" d="M242.74,24.25c3.35,0,6.06-2.71,6.06-6.06s-2.71-6.06-6.06-6.06c-3.35,0-6.06,2.71-6.06,6.06
		S239.4,24.25,242.74,24.25z"/>
	<path class="st2" d="M217.86,92.34l21.31-66.74l-36.17,23.93l-24.42-34.32l-24.42,34.32L118,25.6l21.31,66.74
		C59.67,110.28,0,181.58,0,266.57c0,98.47,80.11,178.58,178.58,178.58c98.47,0,178.58-80.11,178.58-178.58
		C357.17,181.58,297.5,110.28,217.86,92.34z M181.7,67.18c-1.03-1.02-2.75-1.76-5.13-2.19l-0.82-0.15v-4.78l0.88-0.11
		c2.32-0.28,4.01-1.03,5.01-2.23c1.01-1.22,1.46-2.8,1.35-4.83c-0.11-1.96-0.75-3.33-1.98-4.17c-1.2-0.82-2.39-0.9-3.74-0.27
		c-1.37,0.64-2.56,2.7-3.45,5.94l-0.25,0.91l-5.29-1.12l0.27-1.02c0.77-2.92,1.85-5.4,3.21-7.37c1.46-2.11,3.46-3.36,5.97-3.71
		c2.46-0.34,4.64,0.06,6.51,1.19c1.87,1.15,3.2,2.91,3.96,5.25c0.73,2.27,0.83,4.78,0.31,7.44c-0.46,2.34-1.67,4.44-3.59,6.27
		c1.35,0.99,2.43,2.3,3.22,3.92c1.01,2.04,1.35,4.71,1.03,7.95c-0.33,3.28-1.52,5.97-3.53,8.01c-1.97,2-4.23,3.01-6.73,3.01
		c-0.11,0-0.21,0-0.32-0.01c-2.61-0.09-4.9-1.14-6.81-3.13c-1.87-1.95-3.09-4.78-3.61-8.43l-0.13-0.93l5.21-1.1l0.23,0.94
		c0.45,1.88,1.2,3.44,2.21,4.65c0.91,1.09,2.02,1.59,3.36,1.52c1.33-0.06,2.37-0.75,3.18-2.1c0.89-1.48,1.27-3.14,1.16-5.07
		C183.25,69.59,182.71,68.19,181.7,67.18z M178.58,435.15C85.63,435.15,10,359.52,10,266.57S85.63,97.98,178.58,97.98
		s168.58,75.63,168.58,168.58S271.54,435.15,178.58,435.15z"/>
	
		<ellipse transform="matrix(0.3827 -0.9239 0.9239 0.3827 54.2638 117.5868)" class="st2" cx="115.12" cy="18.19" rx="6.06" ry="6.06"/>
</g>
</svg>
