<?xml version="1.0" encoding="utf-8"?>
<!-- Generator: Adobe Illustrator 23.0.2, SVG Export Plug-In . SVG Version: 6.00 Build 0)  -->
<svg version="1.1" id="图层_1" xmlns="http://www.w3.org/2000/svg" xmlns:xlink="http://www.w3.org/1999/xlink" x="0px" y="0px"
	 viewBox="0 0 357.17 445.15" style="enable-background:new 0 0 357.17 445.15;" xml:space="preserve">
<style type="text/css">
	.st0{fill:#FDD23E;}
	.st1{fill:#C9CACA;}
	.st2{fill:#EA9500;}
</style>
<g>
	<circle class="st0" cx="242.74" cy="18.19" r="6.06"/>
	<circle class="st0" cx="178.58" cy="6.06" r="6.06"/>
	<path class="st0" d="M217.86,92.34l21.31-66.74l-36.17,23.93l-24.42-34.32l-24.42,34.32L118,25.6l21.31,66.74
		C59.67,110.28,0,181.58,0,266.57c0,98.47,80.11,178.58,178.58,178.58c98.47,0,178.58-80.11,178.58-178.58
		C357.17,181.58,297.5,110.28,217.86,92.34z M170.55,52.03l0.35-0.3c2.99-2.57,5.47-5.65,7.39-9.13l0.28-0.52h3.82v42.45h-5.71
		V53.74c-1.31,1.37-2.82,2.71-4.52,4l-1.61,1.22V52.03z M178.58,435.15C85.63,435.15,10,359.52,10,266.57S85.63,97.98,178.58,97.98
		s168.58,75.63,168.58,168.58S271.54,435.15,178.58,435.15z"/>
	
		<ellipse transform="matrix(0.3827 -0.9239 0.9239 0.3827 54.2638 117.5868)" class="st0" cx="115.12" cy="18.19" rx="6.06" ry="6.06"/>
</g>
</svg>
