<?xml version="1.0" encoding="utf-8"?>
<!-- Generator: Adobe Illustrator 23.0.2, SVG Export Plug-In . SVG Version: 6.00 Build 0)  -->
<svg version="1.1" id="图层_1" xmlns="http://www.w3.org/2000/svg" xmlns:xlink="http://www.w3.org/1999/xlink" x="0px" y="0px"
	 viewBox="0 0 357.34 445.15" style="enable-background:new 0 0 357.34 445.15;" xml:space="preserve">
<style type="text/css">
	.st0{fill:#FDD23E;}
	.st1{fill:#C9CACA;}
	.st2{fill:#EA9500;}
</style>
<g>
	<circle class="st1" cx="242.74" cy="18.19" r="6.06"/>
	<circle class="st1" cx="178.58" cy="6.06" r="6.06"/>
	
		<ellipse transform="matrix(0.3827 -0.9239 0.9239 0.3827 54.2638 117.5868)" class="st1" cx="115.12" cy="18.19" rx="6.06" ry="6.06"/>
	<path class="st1" d="M217.86,92.34l21.31-66.74l-36.17,23.93l-24.42-34.32l-24.42,34.32L118,25.6l21.31,66.74
		C59.67,110.28,0,181.58,0,266.57c0,98.47,80.11,178.58,178.58,178.58c98.47,0,178.58-80.11,178.58-178.58
		C357.17,181.58,297.5,110.28,217.86,92.34z M167.81,53.16c1.04-3.8,2.36-6.52,4.04-8.3c1.71-1.83,3.78-2.84,6.13-3.02
		c1.31-0.17,2.55-0.12,3.65,0.14c1.13,0.27,2.29,0.89,3.46,1.84c1.18,0.97,2.15,2.41,2.9,4.29c0.73,1.87,1.01,4.11,0.81,6.68
		c-0.19,2.55-1.2,5.61-2.98,9.08c-1.62,3.14-4.65,7.99-9.02,14.42h12.47v6.23h-20.74l0-1.99c0.13-2.56,1.09-4.9,2.84-6.95
		c1.57-1.83,3.6-4.76,6.03-8.7c2.43-3.92,4.02-6.98,4.73-9.08c0.69-2.04,0.96-3.79,0.79-5.21c-0.16-1.35-0.65-2.43-1.49-3.3
		c-0.78-0.8-1.6-1.12-2.6-1c-1.08,0.13-2.14,0.68-3.15,1.62c-1.04,0.97-1.85,2.47-2.41,4.48l-0.25,0.89l-5.49-1.1L167.81,53.16z
		 M178.58,435.15C85.63,435.15,10,359.52,10,266.57S85.63,97.98,178.58,97.98s168.58,75.63,168.58,168.58
		S271.54,435.15,178.58,435.15z"/>
</g>
</svg>
